HIERARCHY
ROOT Hips
{
  OFFSET 0.000 70.097 0.000
  CHANNELS 6 Xposition Yposition Zposition Zrotation Xrotation Yrotation
  JOINT LeftUpLeg
  {
    OFFSET 5.728 1.484 1.583
    CHANNELS 6 Xposition Yposition Zposition Zrotation Xrotation Yrotation
    JOINT LeftLeg
    {
      OFFSET 0.000 -35.708 0.000
      CHANNELS 6 Xposition Yposition Zposition Zrotation Xrotation Yrotation
      JOINT LeftFoot
      {
        OFFSET 0.000 -35.872 0.000
        CHANNELS 6 Xposition Yposition Zposition Zrotation Xrotation Yrotation
        End Site
        {
          OFFSET 0.000 0.000 10.228
        }
      }
    }
  }
  JOINT RightUpLeg
  {
    OFFSET -5.728 1.484 1.583
    CHANNELS 6 Xposition Yposition Zposition Zrotation Xrotation Yrotation
    JOINT RightLeg
    {
      OFFSET 0.000 -35.708 0.000
      CHANNELS 6 Xposition Yposition Zposition Zrotation Xrotation Yrotation
      JOINT RightFoot
      {
        OFFSET 0.000 -35.872 0.000
        CHANNELS 6 Xposition Yposition Zposition Zrotation Xrotation Yrotation
        End Site
        {
          OFFSET 0.000 0.000 10.228
        }
      }
    }
  }
  JOINT Spine
  {
    OFFSET 0.000 34.300 0.000
    CHANNELS 6 Xposition Yposition Zposition Zrotation Xrotation Yrotation
    JOINT Spine1
    {
      OFFSET 0.000 25.000 0.000
      CHANNELS 6 Xposition Yposition Zposition Zrotation Xrotation Yrotation
      JOINT LeftShoulder
      {
        OFFSET 1.800 -0.600 0.200
        CHANNELS 6 Xposition Yposition Zposition Zrotation Xrotation Yrotation
        JOINT LeftArm
        {
          OFFSET 14.583 0.000 0.000
          CHANNELS 6 Xposition Yposition Zposition Zrotation Xrotation Yrotation
          JOINT LeftForeArm
          {
            OFFSET 29.702 0.000 0.000
            CHANNELS 6 Xposition Yposition Zposition Zrotation Xrotation Yrotation
            JOINT LeftHand
            {
              OFFSET 30.511 0.000 0.000
              CHANNELS 6 Xposition Yposition Zposition Zrotation Xrotation Yrotation
              JOINT LeftHandThumb1
              {
                OFFSET 4.877 -1.044 3.608
                CHANNELS 6 Xposition Yposition Zposition Zrotation Xrotation Yrotation
                JOINT LeftHandThumb2
                {
                  OFFSET 2.665 0.000 0.000
                  CHANNELS 6 Xposition Yposition Zposition Zrotation Xrotation Yrotation
                  JOINT LeftHandThumb3
                  {
                    OFFSET 2.543 0.000 0.000
                    CHANNELS 6 Xposition Yposition Zposition Zrotation Xrotation Yrotation
                    End Site
                    {
                      OFFSET 2.667 0.000 0.000
                    }
                  }
                }
              }
              JOINT LeftHandIndex1
              {
                OFFSET 9.232 -0.301 2.144
                CHANNELS 6 Xposition Yposition Zposition Zrotation Xrotation Yrotation
                JOINT LeftHandIndex2
                {
                  OFFSET 4.225 -0.000 -0.000
                  CHANNELS 6 Xposition Yposition Zposition Zrotation Xrotation Yrotation
                  JOINT LeftHandIndex3
                  {
                    OFFSET 2.654 -0.000 0.000
                    CHANNELS 6 Xposition Yposition Zposition Zrotation Xrotation Yrotation
                    End Site
                    {
                      OFFSET 1.958 0.000 -0.000
                    }
                  }
                }
              }
              JOINT LeftHandMiddle1
              {
                OFFSET 8.920 0.000 -0.000
                CHANNELS 6 Xposition Yposition Zposition Zrotation Xrotation Yrotation
                JOINT LeftHandMiddle2
                {
                  OFFSET 4.863 -0.000 0.000
                  CHANNELS 6 Xposition Yposition Zposition Zrotation Xrotation Yrotation
                  JOINT LeftHandMiddle3
                  {
                    OFFSET 2.765 0.000 0.000
                    CHANNELS 6 Xposition Yposition Zposition Zrotation Xrotation Yrotation
                    End Site
                    {
                      OFFSET 2.006 -0.000 0.000
                    }
                  }
                }
              }
              JOINT LeftHandRing1
              {
                OFFSET 8.689 -0.126 -2.087
                CHANNELS 6 Xposition Yposition Zposition Zrotation Xrotation Yrotation
                JOINT LeftHandRing2
                {
                  OFFSET 4.538 -0.000 -0.000
                  CHANNELS 6 Xposition Yposition Zposition Zrotation Xrotation Yrotation
                  JOINT LeftHandRing3
                  {
                    OFFSET 2.305 0.000 0.000
                    CHANNELS 6 Xposition Yposition Zposition Zrotation Xrotation Yrotation
                    End Site
                    {
                      OFFSET 1.923 0.000 -0.000
                    }
                  }
                }
              }
              JOINT LeftHandPinky1
              {
                OFFSET 8.391 -0.817 -3.758
                CHANNELS 6 Xposition Yposition Zposition Zrotation Xrotation Yrotation
                JOINT LeftHandPinky2
                {
                  OFFSET 3.044 -0.000 -0.000
                  CHANNELS 6 Xposition Yposition Zposition Zrotation Xrotation Yrotation
                  JOINT LeftHandPinky3
                  {
                    OFFSET 1.975 -0.000 -0.000
                    CHANNELS 6 Xposition Yposition Zposition Zrotation Xrotation Yrotation
                    End Site
                    {
                      OFFSET 1.667 0.000 0.000
                    }
                  }
                }
              }
            }
          }
        }
      }
      JOINT RightShoulder
      {
        OFFSET -1.800 -0.600 0.200
        CHANNELS 6 Xposition Yposition Zposition Zrotation Xrotation Yrotation
        JOINT RightArm
        {
          OFFSET -14.583 0.000 0.000
          CHANNELS 6 Xposition Yposition Zposition Zrotation Xrotation Yrotation
          JOINT RightForeArm
          {
            OFFSET -29.702 0.000 0.000
            CHANNELS 6 Xposition Yposition Zposition Zrotation Xrotation Yrotation
            JOINT RightHand
            {
              OFFSET -30.511 0.000 0.000
              CHANNELS 6 Xposition Yposition Zposition Zrotation Xrotation Yrotation
              JOINT RightHandThumb1
              {
                OFFSET -4.877 -1.044 3.608
                CHANNELS 6 Xposition Yposition Zposition Zrotation Xrotation Yrotation
                JOINT RightHandThumb2
                {
                  OFFSET -2.665 -0.000 0.000
                  CHANNELS 6 Xposition Yposition Zposition Zrotation Xrotation Yrotation
                  JOINT RightHandThumb3
                  {
                    OFFSET -2.543 0.000 0.000
                    CHANNELS 6 Xposition Yposition Zposition Zrotation Xrotation Yrotation
                    End Site
                    {
                      OFFSET -2.667 0.000 -0.000
                    }
                  }
                }
              }
              JOINT RightHandIndex1
              {
                OFFSET -9.232 -0.301 2.144
                CHANNELS 6 Xposition Yposition Zposition Zrotation Xrotation Yrotation
                JOINT RightHandIndex2
                {
                  OFFSET -4.225 0.000 0.000
                  CHANNELS 6 Xposition Yposition Zposition Zrotation Xrotation Yrotation
                  JOINT RightHandIndex3
                  {
                    OFFSET -2.654 0.000 0.000
                    CHANNELS 6 Xposition Yposition Zposition Zrotation Xrotation Yrotation
                    End Site
                    {
                      OFFSET -1.958 -0.000 0.000
                    }
                  }
                }
              }
              JOINT RightHandMiddle1
              {
                OFFSET -8.920 -0.000 0.000
                CHANNELS 6 Xposition Yposition Zposition Zrotation Xrotation Yrotation
                JOINT RightHandMiddle2
                {
                  OFFSET -4.863 0.000 -0.000
                  CHANNELS 6 Xposition Yposition Zposition Zrotation Xrotation Yrotation
                  JOINT RightHandMiddle3
                  {
                    OFFSET -2.765 0.000 0.000
                    CHANNELS 6 Xposition Yposition Zposition Zrotation Xrotation Yrotation
                    End Site
                    {
                      OFFSET -2.006 -0.000 0.000
                    }
                  }
                }
              }
              JOINT RightHandRing1
              {
                OFFSET -8.689 -0.126 -2.087
                CHANNELS 6 Xposition Yposition Zposition Zrotation Xrotation Yrotation
                JOINT RightHandRing2
                {
                  OFFSET -4.538 0.000 0.000
                  CHANNELS 6 Xposition Yposition Zposition Zrotation Xrotation Yrotation
                  JOINT RightHandRing3
                  {
                    OFFSET -2.305 -0.000 0.000
                    CHANNELS 6 Xposition Yposition Zposition Zrotation Xrotation Yrotation
                    End Site
                    {
                      OFFSET -1.923 0.000 -0.000
                    }
                  }
                }
              }
              JOINT RightHandPinky1
              {
                OFFSET -8.391 -0.817 -3.758
                CHANNELS 6 Xposition Yposition Zposition Zrotation Xrotation Yrotation
                JOINT RightHandPinky2
                {
                  OFFSET -3.044 -0.000 0.000
                  CHANNELS 6 Xposition Yposition Zposition Zrotation Xrotation Yrotation
                  JOINT RightHandPinky3
                  {
                    OFFSET -1.975 0.000 0.000
                    CHANNELS 6 Xposition Yposition Zposition Zrotation Xrotation Yrotation
                    End Site
                    {
                      OFFSET -1.667 0.000 0.000
                    }
                  }
                }
              }
            }
          }
        }
      }
      JOINT Neck
      {
        OFFSET 0.000 0.800 0.000
        CHANNELS 6 Xposition Yposition Zposition Zrotation Xrotation Yrotation
        JOINT Head
        {
          OFFSET 0.000 6.645 0.000
          CHANNELS 6 Xposition Yposition Zposition Zrotation Xrotation Yrotation
          End Site
          {
            OFFSET 0.000 14.036 0.000
          }
        }
      }
    }
  }
}
MOTION
Frames:	4
Frame Time:	0.033333
-130.26720 51.02887 -223.29465 -7.21539 20.34338 -3.21701 6.60055 3.11616 2.29682 38.06335 -64.01220 26.32749 2.80731 -30.87022 -0.30801 -118.96142 75.16167 75.49896 1.15385 -35.51609 -1.21744 3.57215 -19.70575 6.58183 -3.31269 0.72406 2.15094 -32.49758 4.97329 -52.12415 -0.07295 -30.21845 -0.24891 15.99339 -12.00613 27.13266 -2.91922 -34.21248 -2.21607 -9.87840 16.62291 26.19552 -0.37072 27.03016 0.04309 -1.03142 1.73295 -19.86903 -0.06401 20.26743 0.09109 -1.26519 1.26353 -24.62574 1.10140 0.21762 -0.66378 7.76749 7.34569 34.22729 11.37627 0.01810 0.56120 -93.75197 13.61975 -33.21818 21.35048 5.34490 2.74439 28.46959 20.84842 -32.43303 21.77639 -0.36133 0.18078 63.00251 36.08908 -87.20608 4.87700 -1.04401 3.60800 -41.57595 -8.45725 -7.72882 2.66501 0.00000 0.00001 0.00000 -0.00000 5.00000 2.54300 0.00000 0.00001 0.00001 0.00000 60.00000 9.23201 -0.30100 2.14400 -80.00000 -0.00000 0.00000 4.22499 -0.00002 -0.00000 -90.00000 -0.00000 0.00000 2.65400 -0.00001 0.00000 -70.00000 0.00000 0.00000 8.92000 0.00000 -0.00000 -80.00000 -0.00000 0.00000 4.86298 -0.00001 0.00000 -90.00000 -0.00000 0.00000 2.76500 0.00001 0.00001 -70.00000 0.00000 0.00000 8.68900 -0.12598 -2.08700 -80.00000 -0.00000 0.00000 4.53799 -0.00001 -0.00001 -90.00000 -0.00000 0.00000 2.30501 0.00000 0.00000 -70.00000 0.00000 0.00000 8.39100 -0.81701 -3.75801 -80.00000 -0.00000 0.00000 3.04401 -0.00001 -0.00000 -90.00000 -0.00000 0.00000 1.97501 -0.00001 -0.00001 -70.00000 0.00000 0.00000 -0.45225 -1.30768 -0.80506 34.50842 -43.09389 -43.49783 -14.13727 -0.05078 -0.02795 -177.71989 -12.06475 -1.67166 -31.79363 -0.00608 -0.10875 -125.85635 -34.95136 9.30998 -26.05750 0.86975 -0.88577 -13.38299 6.34290 1.06426 -4.87700 -1.04401 3.60800 37.43812 21.26626 8.20656 -2.66500 -0.00001 0.00000 -0.00000 0.00000 -5.00001 -2.54298 0.00002 0.00001 0.00001 0.00000 -60.00000 -9.23200 -0.30099 2.14400 80.00000 -0.00000 0.00001 -4.22498 0.00000 0.00001 90.00000 -0.00000 0.00001 -2.65400 0.00001 0.00000 70.00000 -0.00000 0.00001 -8.91998 -0.00002 0.00001 80.00000 -0.00000 0.00001 -4.86299 0.00002 -0.00001 90.00000 -0.00000 0.00001 -2.76501 0.00000 0.00000 70.00000 -0.00000 0.00001 -8.68899 -0.12599 -2.08700 80.00000 -0.00000 0.00001 -4.53800 0.00001 0.00000 90.00000 -0.00000 0.00001 -2.30500 -0.00001 0.00001 70.00000 -0.00000 0.00001 -8.39099 -0.81700 -3.75799 80.00000 -0.00000 0.00001 -3.04399 -0.00001 0.00000 90.00000 -0.00000 0.00001 -1.97501 0.00002 0.00000 70.00000 -0.00000 0.00001 0.00255 0.67634 -0.00004 -0.00458 -0.00008 -0.00073 0.14254 6.05592 -0.02175 27.87415 8.21811 26.32951 
-129.77043 47.88356 -223.57744 -9.61349 21.17590 -1.24788 6.43418 3.24724 2.28256 49.32487 -75.79314 33.01759 1.37374 -32.40004 1.17443 -19.15438 67.69491 -28.70279 -4.29775 -17.05456 3.22984 23.20618 15.72480 13.56813 -3.37969 0.83680 2.18664 -26.82813 10.28189 -55.74154 0.09483 -29.78358 -0.25461 42.06046 0.53272 33.64164 -2.57392 -23.45466 -1.65216 -4.38205 22.13334 17.84316 -0.21934 26.99886 0.01525 -0.99968 1.81408 -18.13125 -0.03151 20.34188 0.01038 -1.36699 1.33386 -25.70099 1.04784 0.31183 -0.75830 10.89777 11.50755 38.24710 11.42786 0.13055 0.35979 -86.13499 17.56488 -36.52611 23.32134 4.82277 1.67350 21.69107 17.05184 -32.87288 22.13265 -0.24377 0.17955 44.22746 31.50175 -63.81528 4.87700 -1.04401 3.60800 -41.57595 -8.45725 -7.72882 2.66501 0.00000 0.00001 0.00000 -0.00000 5.00000 2.54300 0.00000 0.00001 0.00001 0.00000 60.00000 9.23201 -0.30100 2.14400 -80.00000 -0.00000 0.00000 4.22499 -0.00002 -0.00000 -90.00000 -0.00000 0.00000 2.65400 -0.00001 0.00000 -70.00000 0.00000 0.00000 8.92000 0.00000 -0.00000 -80.00000 -0.00000 0.00000 4.86298 -0.00001 0.00000 -90.00000 -0.00000 0.00000 2.76500 0.00001 0.00001 -70.00000 0.00000 0.00000 8.68900 -0.12598 -2.08700 -80.00000 -0.00000 0.00000 4.53799 -0.00001 -0.00001 -90.00000 -0.00000 0.00000 2.30501 0.00000 0.00000 -70.00000 0.00000 0.00000 8.39100 -0.81701 -3.75801 -80.00000 -0.00000 0.00000 3.04401 -0.00001 -0.00000 -90.00000 -0.00000 0.00000 1.97501 -0.00001 -0.00001 -70.00000 0.00000 0.00000 -0.33774 -1.31428 -0.86067 29.38523 -46.41136 -51.21790 -14.13123 -0.09354 -0.09353 -177.96713 -14.11880 -2.52387 -31.85729 -0.05306 -0.01650 -125.68589 -33.94423 12.29373 -26.78496 0.62947 -0.36056 -13.82676 3.24064 4.05236 -4.87700 -1.04401 3.60800 37.43812 21.26626 8.20656 -2.66500 -0.00001 0.00000 -0.00000 0.00000 -5.00001 -2.54298 0.00002 0.00001 0.00001 0.00000 -60.00000 -9.23200 -0.30099 2.14400 80.00000 -0.00000 0.00001 -4.22498 0.00000 0.00001 90.00000 -0.00000 0.00001 -2.65400 0.00001 0.00000 70.00000 -0.00000 0.00001 -8.91998 -0.00002 0.00001 80.00000 -0.00000 0.00001 -4.86299 0.00002 -0.00001 90.00000 -0.00000 0.00001 -2.76501 0.00000 0.00000 70.00000 -0.00000 0.00001 -8.68899 -0.12599 -2.08700 80.00000 -0.00000 0.00001 -4.53800 0.00001 0.00000 90.00000 -0.00000 0.00001 -2.30500 -0.00001 0.00001 70.00000 -0.00000 0.00001 -8.39099 -0.81700 -3.75799 80.00000 -0.00000 0.00001 -3.04399 -0.00001 0.00000 90.00000 -0.00000 0.00001 -1.97501 0.00002 0.00000 70.00000 -0.00000 0.00001 0.00273 0.68112 -0.00004 -0.00475 -0.00008 -0.00073 0.13379 6.10198 -0.03484 30.54009 8.30226 21.33235 
-128.48500 44.35770 -223.39764 -11.51036 21.46505 -6.95231 6.44731 3.75116 2.05289 83.16827 -74.97453 62.88097 0.82203 -33.11268 1.17699 -6.10212 48.93052 -45.60440 3.19759 -15.64653 9.28067 36.32275 37.14713 -3.88625 -3.05802 0.51268 2.03406 -24.62828 9.31376 -49.72079 0.03146 -29.85020 -0.16041 58.08640 11.63457 34.14416 1.03229 -21.73368 -1.80658 -0.52740 22.26855 10.01230 -0.16598 26.43974 0.15524 -1.19105 1.83855 -13.76368 -0.03449 19.99552 0.03963 -1.56075 1.61248 -19.58226 1.06639 0.40058 -0.83469 13.71951 14.43951 39.47832 12.08204 0.24079 0.09249 -81.03740 19.11031 -39.57450 24.04821 3.74331 0.97543 18.97932 13.90845 -32.09669 22.22428 -0.10324 0.07327 30.81511 25.97522 -49.20011 4.87700 -1.04401 3.60800 -41.57595 -8.45725 -7.72882 2.66501 0.00000 0.00001 0.00000 -0.00000 5.00000 2.54300 0.00000 0.00001 0.00001 0.00000 60.00000 9.23201 -0.30100 2.14400 -80.00000 -0.00000 0.00000 4.22499 -0.00002 -0.00000 -90.00000 -0.00000 0.00000 2.65400 -0.00001 0.00000 -70.00000 0.00000 0.00000 8.92000 0.00000 -0.00000 -80.00000 -0.00000 0.00000 4.86298 -0.00001 0.00000 -90.00000 -0.00000 0.00000 2.76500 0.00001 0.00001 -70.00000 0.00000 0.00000 8.68900 -0.12598 -2.08700 -80.00000 -0.00000 0.00000 4.53799 -0.00001 -0.00001 -90.00000 -0.00000 0.00000 2.30501 0.00000 0.00000 -70.00000 0.00000 0.00000 8.39100 -0.81701 -3.75801 -80.00000 -0.00000 0.00000 3.04401 -0.00001 -0.00000 -90.00000 -0.00000 0.00000 1.97501 -0.00001 -0.00001 -70.00000 0.00000 0.00000 -0.18777 -1.40191 -0.91867 21.12976 -51.37442 -62.98552 -14.78744 -0.16927 -0.16319 -178.22900 -14.76091 -3.98851 -31.91175 -0.05736 -0.01490 -126.00677 -31.46888 14.93112 -27.11618 0.36082 -0.00481 -15.37743 0.94166 6.31119 -4.87700 -1.04401 3.60800 37.43812 21.26626 8.20656 -2.66500 -0.00001 0.00000 -0.00000 0.00000 -5.00001 -2.54298 0.00002 0.00001 0.00001 0.00000 -60.00000 -9.23200 -0.30099 2.14400 80.00000 -0.00000 0.00001 -4.22498 0.00000 0.00001 90.00000 -0.00000 0.00001 -2.65400 0.00001 0.00000 70.00000 -0.00000 0.00001 -8.91998 -0.00002 0.00001 80.00000 -0.00000 0.00001 -4.86299 0.00002 -0.00001 90.00000 -0.00000 0.00001 -2.76501 0.00000 0.00000 70.00000 -0.00000 0.00001 -8.68899 -0.12599 -2.08700 80.00000 -0.00000 0.00001 -4.53800 0.00001 0.00000 90.00000 -0.00000 0.00001 -2.30500 -0.00001 0.00001 70.00000 -0.00000 0.00001 -8.39099 -0.81700 -3.75799 80.00000 -0.00000 0.00001 -3.04399 -0.00001 0.00000 90.00000 -0.00000 0.00001 -1.97501 0.00002 0.00000 70.00000 -0.00000 0.00001 0.00290 0.67231 -0.00004 -0.00492 -0.00008 -0.00073 0.11222 6.01654 -0.03803 33.66689 6.52500 16.96514 
-125.06436 39.85509 -223.21455 -12.10095 21.28536 -9.17956 7.85310 4.30521 2.11820 91.96987 -76.14081 68.90260 0.70239 -31.50322 0.53025 -5.73121 71.04625 -39.12273 -3.98791 -19.39699 0.35851 10.97260 2.00153 4.51487 -4.47103 0.11979 1.83331 -26.58960 7.36540 -47.85455 -0.04901 -27.85907 -0.25638 66.37391 22.06679 32.82278 2.62049 -24.40538 -2.08669 2.95887 10.13012 11.53060 -0.07045 25.77779 0.13862 -1.33077 1.81694 -7.10728 -0.01223 19.51395 0.01773 -1.59416 1.86891 -10.59902 1.14365 0.51363 -0.61533 19.30958 12.56976 28.16834 12.28170 0.20419 0.04099 -79.01553 17.46130 -39.63781 24.80844 2.87553 0.46144 15.96430 11.68402 -31.39063 22.37004 -0.05754 -0.00647 22.86045 20.18187 -35.88687 4.87700 -1.04401 3.60800 -41.57595 -8.45725 -7.72882 2.66501 0.00000 0.00001 0.00000 -0.00000 5.00000 2.54300 0.00000 0.00001 0.00001 0.00000 60.00000 9.23201 -0.30100 2.14400 -80.00000 -0.00000 0.00000 4.22499 -0.00002 -0.00000 -90.00000 -0.00000 0.00000 2.65400 -0.00001 0.00000 -70.00000 0.00000 0.00000 8.92000 0.00000 -0.00000 -80.00000 -0.00000 0.00000 4.86298 -0.00001 0.00000 -90.00000 -0.00000 0.00000 2.76500 0.00001 0.00001 -70.00000 0.00000 0.00000 8.68900 -0.12598 -2.08700 -80.00000 -0.00000 0.00000 4.53799 -0.00001 -0.00001 -90.00000 -0.00000 0.00000 2.30501 0.00000 0.00000 -70.00000 0.00000 0.00000 8.39100 -0.81701 -3.75801 -80.00000 -0.00000 0.00000 3.04401 -0.00001 -0.00000 -90.00000 -0.00000 0.00000 1.97501 -0.00001 -0.00001 -70.00000 0.00000 0.00000 -0.46854 -1.20030 -0.44303 31.05981 -39.39884 -39.79387 -12.06073 -3.10085 -0.30099 -170.35785 21.85430 11.14509 -31.06387 0.91571 -0.61534 -137.08156 -32.20720 6.54067 -27.50800 0.35153 0.26386 -16.03537 0.34334 7.64647 -4.87700 -1.04401 3.60800 37.43812 21.26626 8.20656 -2.66500 -0.00001 0.00000 -0.00000 0.00000 -5.00001 -2.54298 0.00002 0.00001 0.00001 0.00000 -60.00000 -9.23200 -0.30099 2.14400 80.00000 -0.00000 0.00001 -4.22498 0.00000 0.00001 90.00000 -0.00000 0.00001 -2.65400 0.00001 0.00000 70.00000 -0.00000 0.00001 -8.91998 -0.00002 0.00001 80.00000 -0.00000 0.00001 -4.86299 0.00002 -0.00001 90.00000 -0.00000 0.00001 -2.76501 0.00000 0.00000 70.00000 -0.00000 0.00001 -8.68899 -0.12599 -2.08700 80.00000 -0.00000 0.00001 -4.53800 0.00001 0.00000 90.00000 -0.00000 0.00001 -2.30500 -0.00001 0.00001 70.00000 -0.00000 0.00001 -8.39099 -0.81700 -3.75799 80.00000 -0.00000 0.00001 -3.04399 -0.00001 0.00000 90.00000 -0.00000 0.00001 -1.97501 0.00002 0.00000 70.00000 -0.00000 0.00001 0.00307 0.65871 -0.00004 -0.00508 -0.00008 -0.00073 0.07982 5.90435 -0.02274 34.56825 -0.55485 5.25660 
